<svg width="121" height="29" viewBox="0 0 121 29" fill="none" xmlns="http://www.w3.org/2000/svg">
<g clip-path="url(#clip0_101_954)">
<path d="M14.1725 29.0001C22.0031 29.0001 28.3449 22.683 28.3449 14.9017C28.3449 7.12037 22.0031 0.794922 14.1725 0.794922C6.34186 0.794922 0 7.10363 0 14.8933C0 22.683 6.35027 28.9917 14.1725 28.9917" fill="#111111"/>
<path d="M28.3531 29.0001C36.1837 29.0001 42.5256 22.683 42.5256 14.9017C42.5256 7.12037 36.1837 0.794922 28.3531 0.794922C20.5225 0.794922 14.1807 7.112 14.1807 14.9017C14.1807 22.6913 20.5309 29.0001 28.3531 29.0001Z" fill="#FC4B20"/>
<path d="M43.3756 29.0001C51.2062 29.0001 57.5565 22.683 57.5565 14.9017C57.5565 7.12037 51.1978 0.794922 43.3756 0.794922C35.5534 0.794922 29.2031 7.112 29.2031 14.9017C29.2031 22.6913 35.5534 29.0001 43.3756 29.0001Z" fill="#111111"/>
<path d="M66.1523 29V0H72.8138C74.1764 0 75.1437 0.0669359 75.6988 0.192441C78.7772 0.903635 80.308 3.13762 80.308 6.90277C80.308 10.1324 78.7604 12.3162 75.6735 13.4709C79.1725 14.2323 80.9304 16.6085 80.9304 20.5912C80.9304 22.1809 80.6528 23.6117 80.0893 24.8918C79.5258 26.172 78.7351 27.176 77.709 27.8956C76.8427 28.5063 75.8502 28.8578 74.7399 28.9582C74.3026 28.9833 73.7895 29 73.2007 29H66.1523ZM71.4092 11.3456C72.5783 11.3289 73.3774 11.1867 73.7979 10.9189C74.6642 10.3918 75.1016 9.33757 75.1016 7.7562C75.1016 6.40075 74.8661 5.42181 74.3951 4.82776C73.9661 4.31737 73.2428 4.06636 72.2166 4.06636C72.0064 4.06636 71.7288 4.08309 71.4092 4.10819V11.3456ZM71.4092 24.5571C71.9811 24.5739 72.3596 24.5822 72.5615 24.5822C73.4867 24.5822 74.1343 24.3312 74.5044 23.8376C75.0848 23.0594 75.3792 21.8211 75.3792 20.1226C75.3792 17.9723 74.8493 16.6503 73.7979 16.1734C73.3858 15.9893 72.5867 15.8973 71.4092 15.8973V24.5655V24.5571Z" fill="#111111"/>
<path d="M83.8408 29V0H90.3088C95.9862 0 98.8291 2.6356 98.8291 7.90681C98.8291 11.2954 97.7525 13.7302 95.6077 15.2112L98.7282 29H93.4125L90.8303 16.3156H89.3752V29H83.8408ZM89.3752 12.4752H90.1238C91.192 12.4752 91.949 12.2493 92.3863 11.7975C93.0845 11.0863 93.4293 9.88142 93.4293 8.16619C93.4293 6.57646 93.0592 5.46365 92.3191 4.81102C91.8481 4.41777 91.1331 4.21696 90.1659 4.21696H89.3752V12.4668V12.4752Z" fill="#111111"/>
<path d="M101.479 29V0H108.695L111.26 15.0188L113.784 0H121V29H116.046V6.92787L112.219 29H109.208L105.709 6.92787V29H101.479Z" fill="#111111"/>
</g>
<defs>
<clipPath id="clip0_101_954">
<rect width="121" height="29" fill="white"/>
</clipPath>
</defs>
</svg>
